<svg width="447" height="234" viewBox="0 0 447 234" fill="none" xmlns="http://www.w3.org/2000/svg">
<path d="M12 0C5.376 0 0 5.376 0 12C0 18.624 5.376 24 12 24C18.624 24 24 18.624 24 12C24 5.376 18.624 0 12 0ZM12 3.6C13.992 3.6 15.6 5.208 15.6 7.2C15.6 9.192 13.992 10.8 12 10.8C10.008 10.8 8.4 9.192 8.4 7.2C8.4 5.208 10.008 3.6 12 3.6ZM12 20.64C9 20.64 6.348 19.104 4.8 16.776C4.836 14.388 9.6 13.08 12 13.08C14.388 13.08 19.164 14.388 19.2 16.776C17.652 19.104 15 20.64 12 20.64Z" fill="white"/>
<path opacity="0.24" d="M40 20H64V17.3333H40V20ZM40 13.3333H64V10.6667H40V13.3333ZM40 4V6.66667H64V4H40Z" fill="white"/>
<path d="M47.4167 73.8334V85.5001H41.5833V73.8334H47.4167ZM12.4167 73.8334V85.5001H9.5C7.89583 85.5001 6.58333 84.1876 6.58333 82.5834V73.8334H12.4167ZM27 35.9167C12.5042 35.9167 0.75 47.6709 0.75 62.1667V82.5834C0.75 87.4251 4.65833 91.3334 9.5 91.3334H18.25V68.0001H6.58333V62.1667C6.58333 50.8792 15.7125 41.7501 27 41.7501C38.2875 41.7501 47.4167 50.8792 47.4167 62.1667V68.0001H35.75V91.3334H47.4167V94.2501H27V100.083H44.5C49.3417 100.083 53.25 96.1751 53.25 91.3334V62.1667C53.25 47.6709 41.4958 35.9167 27 35.9167Z" fill="#3077C6"/>
<path d="M98.75 44.6666V65.0833H70.0791L66.6666 68.4958V44.6666H98.75ZM101.667 38.8333H63.75C62.1458 38.8333 60.8333 40.1457 60.8333 41.7499V82.5833L72.5 70.9166H101.667C103.271 70.9166 104.583 69.6041 104.583 67.9999V41.7499C104.583 40.1457 103.271 38.8333 101.667 38.8333ZM116.25 50.4999H110.417V76.7499H72.5V82.5833C72.5 84.1874 73.8125 85.4999 75.4166 85.4999H107.5L119.167 97.1666V53.4166C119.167 51.8124 117.854 50.4999 116.25 50.4999Z" fill="#3077C6"/>
<path d="M137.667 50.5001H190.167V44.6667H137.667C134.458 44.6667 131.833 47.2918 131.833 50.5001V82.5834H126V91.3334H166.833V82.5834H137.667V50.5001ZM193.083 56.3334H175.583C173.979 56.3334 172.667 57.6459 172.667 59.2501V88.4167C172.667 90.0209 173.979 91.3334 175.583 91.3334H193.083C194.688 91.3334 196 90.0209 196 88.4167V59.2501C196 57.6459 194.688 56.3334 193.083 56.3334ZM190.167 82.5834H178.5V62.1667H190.167V82.5834Z" fill="#3077C6"/>
<path d="M261.25 51.3334H242.846L245.617 38.0042L245.704 37.0709C245.704 35.8751 245.208 34.7667 244.421 33.9792L241.329 30.9167L222.138 50.1376C221.058 51.1876 220.417 52.6459 220.417 54.2501V83.4167C220.417 86.6251 223.042 89.2501 226.25 89.2501H252.5C254.921 89.2501 256.992 87.7918 257.867 85.6918L266.675 65.1292C266.938 64.4584 267.083 63.7584 267.083 63.0001V57.1667C267.083 53.9584 264.458 51.3334 261.25 51.3334ZM261.25 63.0001L252.5 83.4167H226.25V54.2501L238.908 41.5917L235.671 57.1667H261.25V63.0001ZM202.917 54.2501H214.583V89.2501H202.917V54.2501Z" fill="#3077C6"/>
<path d="M97.6101 10.6101V4.38992H91.3899L87 0L82.6101 4.38992H76.3899V10.6101L72 15L76.3899 19.3899V25.6101H82.6101L87 30L91.3899 25.6101H97.6101V19.3899L102 15L97.6101 10.6101ZM87 22.9576C85.8196 22.9576 84.6923 22.6923 83.6844 22.2281C86.4164 20.9682 88.3263 18.2096 88.3263 15C88.3263 11.7905 86.4164 9.03183 83.6844 7.77188C84.6923 7.30769 85.8196 7.04244 87 7.04244C91.3899 7.04244 94.9576 10.6101 94.9576 15C94.9576 19.3899 91.3899 22.9576 87 22.9576Z" fill="white"/>
<path d="M37.6587 9.65871V6.34129H34.3413L32 4L29.6587 6.34129H26.3413V9.65871L24 12L26.3413 14.3413V17.6587H29.6587L32 20L34.3413 17.6587H37.6587V14.3413L40 12L37.6587 9.65871ZM32 16.244C31.3705 16.244 30.7692 16.1026 30.2316 15.855C31.6888 15.183 32.7073 13.7118 32.7073 12C32.7073 10.2882 31.6888 8.81698 30.2316 8.145C30.7692 7.89744 31.3705 7.75597 32 7.75597C34.3413 7.75597 36.244 9.65871 36.244 12C36.244 14.3413 34.3413 16.244 32 16.244Z" fill="white"/>
<path d="M126 0C114.96 0 106 8.96 106 20C106 31.04 114.96 40 126 40C137.04 40 146 31.04 146 20C146 8.96 137.04 0 126 0ZM126 6C129.32 6 132 8.68 132 12C132 15.32 129.32 18 126 18C122.68 18 120 15.32 120 12C120 8.68 122.68 6 126 6ZM126 34.4C121 34.4 116.58 31.84 114 27.96C114.06 23.98 122 21.8 126 21.8C129.98 21.8 137.94 23.98 138 27.96C135.42 31.84 131 34.4 126 34.4Z" fill="white"/>
<path d="M73.1667 166.333V183H64.8333V166.333H73.1667ZM23.1667 166.333V183H19C16.7083 183 14.8333 181.125 14.8333 178.833V166.333H23.1667ZM44 112.167C23.2917 112.167 6.5 128.958 6.5 149.667V178.833C6.5 185.75 12.0833 191.333 19 191.333H31.5V158H14.8333V149.667C14.8333 133.542 27.875 120.5 44 120.5C60.125 120.5 73.1667 133.542 73.1667 149.667V158H56.5V191.333H73.1667V195.5H44V203.833H69C75.9167 203.833 81.5 198.25 81.5 191.333V149.667C81.5 128.958 64.7083 112.167 44 112.167Z" fill="#3077C6"/>
<path d="M145 120.667V120.167H144.5H98.6667H98.1667V120.667V154.708V155.916L99.0202 155.062L103.749 150.333H144.5H145V149.833V120.667ZM107 157.667H106.793L106.646 157.813L90.8333 173.626V116.5C90.8333 114.485 92.4845 112.833 94.5 112.833H148.667C150.682 112.833 152.333 114.485 152.333 116.5V154C152.333 156.016 150.682 157.667 148.667 157.667H107ZM161.167 167H161.667V166.5V129.5H169.5C171.516 129.5 173.167 131.151 173.167 133.167V194.46L157.354 178.646L157.207 178.5H157H111.167C109.151 178.5 107.5 176.849 107.5 174.833V167H161.167Z" fill="#3077C6" stroke="black"/>
<path d="M201.667 121H276.667V112.667H201.667C197.083 112.667 193.333 116.417 193.333 121V166.833H185V179.333H243.333V166.833H201.667V121ZM280.833 129.333H255.833C253.542 129.333 251.667 131.208 251.667 133.5V175.167C251.667 177.458 253.542 179.333 255.833 179.333H280.833C283.125 179.333 285 177.458 285 175.167V133.5C285 131.208 283.125 129.333 280.833 129.333ZM276.667 166.833H260V137.667H276.667V166.833Z" fill="#3077C6"/>
<path d="M394.5 142.333H368.208L372.167 123.292L372.292 121.958C372.292 120.25 371.583 118.667 370.458 117.542L366.042 113.167L338.625 140.625C337.083 142.125 336.167 144.208 336.167 146.5V188.167C336.167 192.75 339.917 196.5 344.5 196.5H382C385.458 196.5 388.417 194.417 389.667 191.417L402.25 162.042C402.625 161.083 402.833 160.083 402.833 159V150.667C402.833 146.083 399.083 142.333 394.5 142.333ZM394.5 159L382 188.167H344.5V146.5L362.583 128.417L357.958 150.667H394.5V159ZM311.167 146.5H327.833V196.5H311.167V146.5Z" fill="#3077C6"/>
<path d="M165.435 10.0629H164.712L164.456 9.81589C165.353 8.77301 165.892 7.4191 165.892 5.94625C165.892 2.66209 163.23 0 159.946 0C156.662 0 154 2.66209 154 5.94625C154 9.23042 156.662 11.8925 159.946 11.8925C161.419 11.8925 162.773 11.3528 163.816 10.4563L164.063 10.7124V11.4351L168.637 16L170 14.6369L165.435 10.0629ZM159.946 10.0629C157.668 10.0629 155.83 8.22413 155.83 5.94625C155.83 3.66838 157.668 1.82962 159.946 1.82962C162.224 1.82962 164.063 3.66838 164.063 5.94625C164.063 8.22413 162.224 10.0629 159.946 10.0629Z" fill="#BFBFBF"/>
<path d="M190 3C183.376 3 178 8.376 178 15C178 21.624 183.376 27 190 27C196.624 27 202 21.624 202 15C202 8.376 196.624 3 190 3ZM190 6.6C191.992 6.6 193.6 8.208 193.6 10.2C193.6 12.192 191.992 13.8 190 13.8C188.008 13.8 186.4 12.192 186.4 10.2C186.4 8.208 188.008 6.6 190 6.6ZM190 23.64C187 23.64 184.348 22.104 182.8 19.776C182.836 17.388 187.6 16.08 190 16.08C192.388 16.08 197.164 17.388 197.2 19.776C195.652 22.104 193 23.64 190 23.64Z" fill="#F5BD41"/>
<path d="M221.659 12.6587V9.34129H218.341L216 7L213.659 9.34129H210.341V12.6587L208 15L210.341 17.3413V20.6587H213.659L216 23L218.341 20.6587H221.659V17.3413L224 15L221.659 12.6587ZM216 19.244C215.37 19.244 214.769 19.1026 214.232 18.855C215.689 18.183 216.707 16.7118 216.707 15C216.707 13.2882 215.689 11.817 214.232 11.145C214.769 10.8974 215.37 10.756 216 10.756C218.341 10.756 220.244 12.6587 220.244 15C220.244 17.3413 218.341 19.244 216 19.244Z" fill="#F5BD41"/>
<path d="M255.61 10.6101V4.38992H249.39L245 0L240.61 4.38992H234.39V10.6101L230 15L234.39 19.3899V25.6101H240.61L245 30L249.39 25.6101H255.61V19.3899L260 15L255.61 10.6101ZM245 22.9576C243.82 22.9576 242.692 22.6923 241.684 22.2281C244.416 20.9682 246.326 18.2096 246.326 15C246.326 11.7905 244.416 9.03183 241.684 7.77188C242.692 7.30769 243.82 7.04244 245 7.04244C249.39 7.04244 252.958 10.6101 252.958 15C252.958 19.3899 249.39 22.9576 245 22.9576Z" fill="#F5BD41"/>
<path d="M288 3C276.96 3 268 11.96 268 23C268 34.04 276.96 43 288 43C299.04 43 308 34.04 308 23C308 11.96 299.04 3 288 3ZM288 9C291.32 9 294 11.68 294 15C294 18.32 291.32 21 288 21C284.68 21 282 18.32 282 15C282 11.68 284.68 9 288 9ZM288 37.4C283 37.4 278.58 34.84 276 30.96C276.06 26.98 284 24.8 288 24.8C291.98 24.8 299.94 26.98 300 30.96C297.42 34.84 293 37.4 288 37.4Z" fill="#F5BD41"/>
</svg>
