<svg width="247" height="153" viewBox="0 0 247 153" fill="none" xmlns="http://www.w3.org/2000/svg">
<g clip-path="url(#clip0)">
<path d="M37.6587 9.65871V6.34129H34.3413L32 4L29.6587 6.34129H26.3413V9.65871L24 12L26.3413 14.3413V17.6587H29.6587L32 20L34.3413 17.6587H37.6587V14.3413L40 12L37.6587 9.65871ZM32 16.244C31.3705 16.244 30.7692 16.1026 30.2316 15.855C31.6888 15.183 32.7073 13.7118 32.7073 12C32.7073 10.2882 31.6888 8.81698 30.2316 8.145C30.7692 7.89744 31.3705 7.75597 32 7.75597C34.3413 7.75597 36.244 9.65871 36.244 12C36.244 14.3413 34.3413 16.244 32 16.244Z" fill="white"/>
<path d="M12 0C5.376 0 0 5.376 0 12C0 18.624 5.376 24 12 24C18.624 24 24 18.624 24 12C24 5.376 18.624 0 12 0ZM12 3.6C13.992 3.6 15.6 5.208 15.6 7.2C15.6 9.192 13.992 10.8 12 10.8C10.008 10.8 8.4 9.192 8.4 7.2C8.4 5.208 10.008 3.6 12 3.6ZM12 20.64C9 20.64 6.348 19.104 4.8 16.776C4.836 14.388 9.6 13.08 12 13.08C14.388 13.08 19.164 14.388 19.2 16.776C17.652 19.104 15 20.64 12 20.64Z" fill="white"/>
<path opacity="0.24" d="M40 20H64V17.3333H40V20ZM40 13.3333H64V10.6667H40V13.3333ZM40 4V6.66667H64V4H40Z" fill="white"/>
<path d="M47.4167 62.8334V74.5001H41.5833V62.8334H47.4167ZM12.4167 62.8334V74.5001H9.5C7.89583 74.5001 6.58333 73.1876 6.58333 71.5834V62.8334H12.4167ZM27 24.9167C12.5042 24.9167 0.75 36.6709 0.75 51.1667V71.5834C0.75 76.4251 4.65833 80.3334 9.5 80.3334H18.25V57.0001H6.58333V51.1667C6.58333 39.8792 15.7125 30.7501 27 30.7501C38.2875 30.7501 47.4167 39.8792 47.4167 51.1667V57.0001H35.75V80.3334H47.4167V83.2501H27V89.0834H44.5C49.3417 89.0834 53.25 85.1751 53.25 80.3334V51.1667C53.25 36.6709 41.4958 24.9167 27 24.9167Z" fill="#3077C6"/>
<path d="M98.75 33.6666V54.0833H70.0791L66.6666 57.4958V33.6666H98.75ZM101.667 27.8333H63.75C62.1458 27.8333 60.8333 29.1457 60.8333 30.7499V71.5833L72.5 59.9166H101.667C103.271 59.9166 104.583 58.6041 104.583 56.9999V30.7499C104.583 29.1457 103.271 27.8333 101.667 27.8333ZM116.25 39.4999H110.417V65.7499H72.5V71.5833C72.5 73.1874 73.8125 74.4999 75.4166 74.4999H107.5L119.167 86.1666V42.4166C119.167 40.8124 117.854 39.4999 116.25 39.4999Z" fill="#3077C6"/>
<path d="M137.667 39.5001H190.167V33.6667H137.667C134.458 33.6667 131.833 36.2918 131.833 39.5001V71.5834H126V80.3334H166.833V71.5834H137.667V39.5001ZM193.083 45.3334H175.583C173.979 45.3334 172.667 46.6459 172.667 48.2501V77.4167C172.667 79.0209 173.979 80.3334 175.583 80.3334H193.083C194.687 80.3334 196 79.0209 196 77.4167V48.2501C196 46.6459 194.687 45.3334 193.083 45.3334ZM190.167 71.5834H178.5V51.1667H190.167V71.5834Z" fill="#3077C6"/>
<path d="M58.25 111.333H39.8458L42.6167 98.0042L42.7042 97.0709C42.7042 95.8751 42.2083 94.7667 41.4208 93.9792L38.3292 90.9167L19.1375 110.138C18.0584 111.188 17.4167 112.646 17.4167 114.25V143.417C17.4167 146.625 20.0417 149.25 23.25 149.25H49.5C51.9208 149.25 53.9917 147.792 54.8667 145.692L63.675 125.129C63.9375 124.458 64.0833 123.758 64.0833 123V117.167C64.0833 113.958 61.4583 111.333 58.25 111.333ZM58.25 123L49.5 143.417H23.25V114.25L35.9083 101.592L32.6708 117.167H58.25V123ZM-0.083313 114.25H11.5834V149.25H-0.083313V114.25Z" fill="#3077C6"/>
</g>
<defs>
<clipPath id="clip0">
<rect width="247" height="153" fill="white"/>
</clipPath>
</defs>
</svg>
