<svg width="447" height="234" viewBox="0 0 447 234" fill="none" xmlns="http://www.w3.org/2000/svg">
<path d="M12 0C5.376 0 0 5.376 0 12C0 18.624 5.376 24 12 24C18.624 24 24 18.624 24 12C24 5.376 18.624 0 12 0ZM12 3.6C13.992 3.6 15.6 5.208 15.6 7.2C15.6 9.192 13.992 10.8 12 10.8C10.008 10.8 8.4 9.192 8.4 7.2C8.4 5.208 10.008 3.6 12 3.6ZM12 20.64C9 20.64 6.348 19.104 4.8 16.776C4.836 14.388 9.6 13.08 12 13.08C14.388 13.08 19.164 14.388 19.2 16.776C17.652 19.104 15 20.64 12 20.64Z" fill="white"/>
<path opacity="0.24" d="M40 20H64V17.3333H40V20ZM40 13.3333H64V10.6667H40V13.3333ZM40 4V6.66667H64V4H40Z" fill="white"/>
<path d="M47.4167 73.8334V85.5001H41.5833V73.8334H47.4167ZM12.4167 73.8334V85.5001H9.5C7.89583 85.5001 6.58333 84.1876 6.58333 82.5834V73.8334H12.4167ZM27 35.9167C12.5042 35.9167 0.75 47.6709 0.75 62.1667V82.5834C0.75 87.4251 4.65833 91.3334 9.5 91.3334H18.25V68.0001H6.58333V62.1667C6.58333 50.8792 15.7125 41.7501 27 41.7501C38.2875 41.7501 47.4167 50.8792 47.4167 62.1667V68.0001H35.75V91.3334H47.4167V94.2501H27V100.083H44.5C49.3417 100.083 53.25 96.1751 53.25 91.3334V62.1667C53.25 47.6709 41.4958 35.9167 27 35.9167Z" fill="#3077C6"/>
<path d="M98.75 44.6666V65.0833H70.0791L66.6666 68.4958V44.6666H98.75ZM101.667 38.8333H63.75C62.1458 38.8333 60.8333 40.1457 60.8333 41.7499V82.5833L72.5 70.9166H101.667C103.271 70.9166 104.583 69.6041 104.583 67.9999V41.7499C104.583 40.1457 103.271 38.8333 101.667 38.8333ZM116.25 50.4999H110.417V76.7499H72.5V82.5833C72.5 84.1874 73.8125 85.4999 75.4166 85.4999H107.5L119.167 97.1666V53.4166C119.167 51.8124 117.854 50.4999 116.25 50.4999Z" fill="#3077C6"/>
<path d="M137.667 50.5001H190.167V44.6667H137.667C134.458 44.6667 131.833 47.2918 131.833 50.5001V82.5834H126V91.3334H166.833V82.5834H137.667V50.5001ZM193.083 56.3334H175.583C173.979 56.3334 172.667 57.6459 172.667 59.2501V88.4167C172.667 90.0209 173.979 91.3334 175.583 91.3334H193.083C194.688 91.3334 196 90.0209 196 88.4167V59.2501C196 57.6459 194.688 56.3334 193.083 56.3334ZM190.167 82.5834H178.5V62.1667H190.167V82.5834Z" fill="#3077C6"/>
<path d="M261.25 51.3334H242.846L245.617 38.0042L245.704 37.0709C245.704 35.8751 245.208 34.7667 244.421 33.9792L241.329 30.9167L222.138 50.1376C221.058 51.1876 220.417 52.6459 220.417 54.2501V83.4167C220.417 86.6251 223.042 89.2501 226.25 89.2501H252.5C254.921 89.2501 256.992 87.7918 257.867 85.6918L266.675 65.1292C266.938 64.4584 267.083 63.7584 267.083 63.0001V57.1667C267.083 53.9584 264.458 51.3334 261.25 51.3334ZM261.25 63.0001L252.5 83.4167H226.25V54.2501L238.908 41.5917L235.671 57.1667H261.25V63.0001ZM202.917 54.2501H214.583V89.2501H202.917V54.2501Z" fill="#3077C6"/>
<path d="M97.6101 10.6101V4.38992H91.3899L87 0L82.6101 4.38992H76.3899V10.6101L72 15L76.3899 19.3899V25.6101H82.6101L87 30L91.3899 25.6101H97.6101V19.3899L102 15L97.6101 10.6101ZM87 22.9576C85.8196 22.9576 84.6923 22.6923 83.6844 22.2281C86.4164 20.9682 88.3263 18.2096 88.3263 15C88.3263 11.7905 86.4164 9.03183 83.6844 7.77188C84.6923 7.30769 85.8196 7.04244 87 7.04244C91.3899 7.04244 94.9576 10.6101 94.9576 15C94.9576 19.3899 91.3899 22.9576 87 22.9576Z" fill="white"/>
<path d="M37.6587 9.65871V6.34129H34.3413L32 4L29.6587 6.34129H26.3413V9.65871L24 12L26.3413 14.3413V17.6587H29.6587L32 20L34.3413 17.6587H37.6587V14.3413L40 12L37.6587 9.65871ZM32 16.244C31.3705 16.244 30.7692 16.1026 30.2316 15.855C31.6888 15.183 32.7073 13.7118 32.7073 12C32.7073 10.2882 31.6888 8.81698 30.2316 8.145C30.7692 7.89744 31.3705 7.75597 32 7.75597C34.3413 7.75597 36.244 9.65871 36.244 12C36.244 14.3413 34.3413 16.244 32 16.244Z" fill="white"/>
<path d="M126 0C114.96 0 106 8.96 106 20C106 31.04 114.96 40 126 40C137.04 40 146 31.04 146 20C146 8.96 137.04 0 126 0ZM126 6C129.32 6 132 8.68 132 12C132 15.32 129.32 18 126 18C122.68 18 120 15.32 120 12C120 8.68 122.68 6 126 6ZM126 34.4C121 34.4 116.58 31.84 114 27.96C114.06 23.98 122 21.8 126 21.8C129.98 21.8 137.94 23.98 138 27.96C135.42 31.84 131 34.4 126 34.4Z" fill="white"/>
<path d="M73.1667 166.333V183H64.8333V166.333H73.1667ZM23.1667 166.333V183H19C16.7083 183 14.8333 181.125 14.8333 178.833V166.333H23.1667ZM44 112.167C23.2917 112.167 6.5 128.958 6.5 149.667V178.833C6.5 185.75 12.0833 191.333 19 191.333H31.5V158H14.8333V149.667C14.8333 133.542 27.875 120.5 44 120.5C60.125 120.5 73.1667 133.542 73.1667 149.667V158H56.5V191.333H73.1667V195.5H44V203.833H69C75.9167 203.833 81.5 198.25 81.5 191.333V149.667C81.5 128.958 64.7083 112.167 44 112.167Z" fill="#3077C6"/>
<path d="M145 120.667V120.167H144.5H98.6667H98.1667V120.667V154.708V155.916L99.0202 155.062L103.749 150.333H144.5H145V149.833V120.667ZM107 157.667H106.793L106.646 157.813L90.8333 173.626V116.5C90.8333 114.485 92.4845 112.833 94.5 112.833H148.667C150.682 112.833 152.333 114.485 152.333 116.5V154C152.333 156.016 150.682 157.667 148.667 157.667H107ZM161.167 167H161.667V166.5V129.5H169.5C171.516 129.5 173.167 131.151 173.167 133.167V194.46L157.354 178.646L157.207 178.5H157H111.167C109.151 178.5 107.5 176.849 107.5 174.833V167H161.167Z" fill="#3077C6" stroke="black"/>
<path d="M201.667 121H276.667V112.667H201.667C197.083 112.667 193.333 116.417 193.333 121V166.833H185V179.333H243.333V166.833H201.667V121ZM280.833 129.333H255.833C253.542 129.333 251.667 131.208 251.667 133.5V175.167C251.667 177.458 253.542 179.333 255.833 179.333H280.833C283.125 179.333 285 177.458 285 175.167V133.5C285 131.208 283.125 129.333 280.833 129.333ZM276.667 166.833H260V137.667H276.667V166.833Z" fill="#3077C6"/>
<path d="M394.5 142.333H368.208L372.167 123.292L372.292 121.958C372.292 120.25 371.583 118.667 370.458 117.542L366.042 113.167L338.625 140.625C337.083 142.125 336.167 144.208 336.167 146.5V188.167C336.167 192.75 339.917 196.5 344.5 196.5H382C385.458 196.5 388.417 194.417 389.667 191.417L402.25 162.042C402.625 161.083 402.833 160.083 402.833 159V150.667C402.833 146.083 399.083 142.333 394.5 142.333ZM394.5 159L382 188.167H344.5V146.5L362.583 128.417L357.958 150.667H394.5V159ZM311.167 146.5H327.833V196.5H311.167V146.5Z" fill="#3077C6"/>
<path d="M165.435 10.0629H164.712L164.456 9.81589C165.353 8.77301 165.892 7.4191 165.892 5.94625C165.892 2.66209 163.23 0 159.946 0C156.662 0 154 2.66209 154 5.94625C154 9.23042 156.662 11.8925 159.946 11.8925C161.419 11.8925 162.773 11.3528 163.816 10.4563L164.063 10.7124V11.4351L168.637 16L170 14.6369L165.435 10.0629ZM159.946 10.0629C157.668 10.0629 155.83 8.22413 155.83 5.94625C155.83 3.66838 157.668 1.82962 159.946 1.82962C162.224 1.82962 164.063 3.66838 164.063 5.94625C164.063 8.22413 162.224 10.0629 159.946 10.0629Z" fill="#BFBFBF"/>
<path d="M190 3C183.376 3 178 8.376 178 15C178 21.624 183.376 27 190 27C196.624 27 202 21.624 202 15C202 8.376 196.624 3 190 3ZM190 6.6C191.992 6.6 193.6 8.208 193.6 10.2C193.6 12.192 191.992 13.8 190 13.8C188.008 13.8 186.4 12.192 186.4 10.2C186.4 8.208 188.008 6.6 190 6.6ZM190 23.64C187 23.64 184.348 22.104 182.8 19.776C182.836 17.388 187.6 16.08 190 16.08C192.388 16.08 197.164 17.388 197.2 19.776C195.652 22.104 193 23.64 190 23.64Z" fill="white"/>
<path d="M221.659 12.6587V9.34129H218.341L216 7L213.659 9.34129H210.341V12.6587L208 15L210.341 17.3413V20.6587H213.659L216 23L218.341 20.6587H221.659V17.3413L224 15L221.659 12.6587ZM216 19.244C215.37 19.244 214.769 19.1026 214.232 18.855C215.689 18.183 216.707 16.7118 216.707 15C216.707 13.2882 215.689 11.817 214.232 11.145C214.769 10.8974 215.37 10.756 216 10.756C218.341 10.756 220.244 12.6587 220.244 15C220.244 17.3413 218.341 19.244 216 19.244Z" fill="white"/>
<path d="M255.61 10.6101V4.38992H249.39L245 0L240.61 4.38992H234.39V10.6101L230 15L234.39 19.3899V25.6101H240.61L245 30L249.39 25.6101H255.61V19.3899L260 15L255.61 10.6101ZM245 22.9576C243.82 22.9576 242.692 22.6923 241.684 22.2281C244.416 20.9682 246.326 18.2096 246.326 15C246.326 11.7905 244.416 9.03183 241.684 7.77188C242.692 7.30769 243.82 7.04244 245 7.04244C249.39 7.04244 252.958 10.6101 252.958 15C252.958 19.3899 249.39 22.9576 245 22.9576Z" fill="white"/>
<path d="M288 3C276.96 3 268 11.96 268 23C268 34.04 276.96 43 288 43C299.04 43 308 34.04 308 23C308 11.96 299.04 3 288 3ZM288 9C291.32 9 294 11.68 294 15C294 18.32 291.32 21 288 21C284.68 21 282 18.32 282 15C282 11.68 284.68 9 288 9ZM288 37.4C283 37.4 278.58 34.84 276 30.96C276.06 26.98 284 24.8 288 24.8C291.98 24.8 299.94 26.98 300 30.96C297.42 34.84 293 37.4 288 37.4Z" fill="white"/>
<path d="M324.941 31.8235L331.1 23.6118C331.633 22.9007 331.633 21.9229 331.1 21.2118L324.941 13" stroke="#383838" stroke-width="2"/>
<path d="M350.059 29.1765L354.1 23.7882C354.633 23.0771 354.633 22.0993 354.1 21.3882L350.059 16" stroke="#383838" stroke-width="2"/>
<path d="M372.176 5.00001L380.388 11.1588C381.099 11.6922 382.077 11.6922 382.788 11.1588L391 5.00001" stroke="#383838" stroke-width="2"/>
<path d="M426 6.4857L424.514 5L413 16.5143L401.486 5L400 6.4857L411.514 18L400 29.5144L401.486 31L413 19.4857L424.514 31L426 29.5144L414.486 18L426 6.4857Z" fill="#BFBFBF"/>
<path d="M328.652 94.7484C328.652 92.6923 329.163 90.7181 330.125 88.9587C328.764 88.1915 327.762 87.6903 327.343 87.4857C327.21 87.4243 327.138 87.2913 327.138 87.1481V79.0671C328.151 78.392 328.826 77.2361 328.826 75.9268V67.5491C328.826 63.3858 325.45 60 321.277 60H320.376H319.476C315.313 60 311.927 63.3756 311.927 67.5491V75.9268C311.927 77.2361 312.602 78.392 313.615 79.0671V87.1481C313.615 87.2913 313.533 87.4243 313.41 87.4857C312.255 88.0483 306.659 90.8715 301.473 95.1371C300.532 95.9043 300 97.0602 300 98.2774V104.016H320.366H332.979C332.702 103.791 332.447 103.545 332.191 103.29C329.91 101.009 328.652 97.9705 328.652 94.7484Z" fill="#3077C6"/>
<path d="M340.732 85.4807C335.618 85.4807 331.465 89.6337 331.465 94.7482C331.465 99.8628 335.618 104.016 340.732 104.016C345.847 104.016 350 99.8628 350 94.7482C350 89.6337 345.857 85.4807 340.732 85.4807ZM346.154 96.0985H342.083V100.17H339.382V96.0985H335.311V93.398H339.382V89.3268H342.083V93.398H346.154V96.0985Z" fill="#3077C6"/>
<path d="M423 37.9143L422.086 37L415 44.0857L407.914 37L407 37.9143L414.086 45L407 52.0858L407.914 53L415 45.9143L422.086 53L423 52.0858L415.914 45L423 37.9143Z" fill="#BFBFBF"/>
<path d="M365.586 79.6094C365.532 79.5215 365.482 79.4017 365.436 79.2499C365.39 79.0981 365.367 78.9383 365.367 78.7706C365.367 78.459 365.432 78.2353 365.563 78.0995C365.701 77.9637 365.877 77.8958 366.092 77.8958H371.106C371.159 77.9837 371.209 78.1035 371.255 78.2553C371.301 78.4071 371.324 78.5669 371.324 78.7346C371.324 79.0462 371.255 79.2699 371.117 79.4057C370.987 79.5415 370.814 79.6094 370.6 79.6094H369.323V85.1456C369.239 85.1696 369.105 85.1936 368.921 85.2175C368.744 85.2415 368.568 85.2535 368.392 85.2535C368.215 85.2535 368.058 85.2375 367.92 85.2056C367.79 85.1816 367.679 85.1337 367.587 85.0618C367.495 84.9899 367.426 84.89 367.38 84.7622C367.334 84.6344 367.311 84.4666 367.311 84.2589V79.6094H365.586Z" fill="white"/>
<path d="M373.643 85.1816C373.566 85.2056 373.443 85.2295 373.275 85.2535C373.114 85.2775 372.945 85.2894 372.769 85.2894C372.6 85.2894 372.447 85.2775 372.309 85.2535C372.179 85.2295 372.067 85.1816 371.975 85.1097C371.883 85.0378 371.811 84.9419 371.757 84.8221C371.711 84.6943 371.688 84.5305 371.688 84.3308V80.7358C371.688 80.5521 371.719 80.3963 371.78 80.2685C371.849 80.1327 371.945 80.0128 372.067 79.909C372.19 79.8051 372.34 79.7133 372.516 79.6334C372.7 79.5455 372.895 79.4696 373.102 79.4057C373.309 79.3418 373.524 79.2939 373.746 79.2619C373.969 79.222 374.191 79.202 374.413 79.202C374.781 79.202 375.073 79.2779 375.287 79.4297C375.502 79.5735 375.609 79.8131 375.609 80.1487C375.609 80.2605 375.594 80.3723 375.563 80.4842C375.533 80.588 375.494 80.6839 375.448 80.7718C375.287 80.7718 375.122 80.7798 374.954 80.7957C374.785 80.8117 374.62 80.8357 374.459 80.8676C374.298 80.8996 374.145 80.9356 373.999 80.9755C373.861 81.0075 373.742 81.0474 373.643 81.0953V85.1816Z" fill="white"/>
<path d="M376.37 77.752C376.37 77.4484 376.466 77.1928 376.657 76.9851C376.857 76.7774 377.117 76.6735 377.439 76.6735C377.761 76.6735 378.018 76.7774 378.21 76.9851C378.409 77.1928 378.509 77.4484 378.509 77.752C378.509 78.0556 378.409 78.3112 378.21 78.5189C378.018 78.7266 377.761 78.8305 377.439 78.8305C377.117 78.8305 376.857 78.7266 376.657 78.5189C376.466 78.3112 376.37 78.0556 376.37 77.752ZM378.417 85.1816C378.332 85.1976 378.206 85.2175 378.037 85.2415C377.876 85.2735 377.711 85.2894 377.543 85.2894C377.374 85.2894 377.221 85.2775 377.083 85.2535C376.952 85.2295 376.841 85.1816 376.749 85.1097C376.657 85.0378 376.584 84.9419 376.531 84.8221C376.485 84.6943 376.462 84.5305 376.462 84.3308V79.4536C376.546 79.4376 376.669 79.4177 376.83 79.3937C376.998 79.3617 377.167 79.3458 377.336 79.3458C377.504 79.3458 377.654 79.3578 377.784 79.3817C377.922 79.4057 378.037 79.4536 378.129 79.5255C378.221 79.5974 378.29 79.6973 378.336 79.8251C378.39 79.9449 378.417 80.1047 378.417 80.3044V85.1816Z" fill="white"/>
<path d="M382.226 79.19C382.686 79.19 383.111 79.2539 383.502 79.3817C383.901 79.5016 384.242 79.6893 384.526 79.9449C384.809 80.2006 385.032 80.5241 385.193 80.9156C385.354 81.299 385.434 81.7584 385.434 82.2936C385.434 82.8049 385.365 83.2523 385.227 83.6358C385.089 84.0192 384.894 84.3428 384.641 84.6064C384.388 84.862 384.081 85.0538 383.721 85.1816C383.368 85.3094 382.973 85.3733 382.536 85.3733C382.207 85.3733 381.9 85.3214 381.616 85.2175V87.2068C381.54 87.2307 381.417 87.2547 381.248 87.2787C381.08 87.3106 380.907 87.3266 380.731 87.3266C380.562 87.3266 380.409 87.3146 380.271 87.2906C380.141 87.2667 380.029 87.2187 379.937 87.1468C379.845 87.0749 379.776 86.9751 379.73 86.8473C379.684 86.7274 379.661 86.5676 379.661 86.3679V80.616C379.661 80.4003 379.704 80.2245 379.788 80.0887C379.88 79.9529 380.003 79.8291 380.156 79.7173C380.394 79.5575 380.689 79.4297 381.041 79.3338C381.394 79.2379 381.789 79.19 382.226 79.19ZM382.249 83.7676C383.038 83.7676 383.433 83.2763 383.433 82.2936C383.433 81.7824 383.334 81.4029 383.134 81.1552C382.943 80.9076 382.663 80.7838 382.295 80.7838C382.149 80.7838 382.019 80.8037 381.904 80.8437C381.789 80.8756 381.689 80.9156 381.605 80.9635V83.5998C381.697 83.6477 381.796 83.6877 381.904 83.7196C382.011 83.7516 382.126 83.7676 382.249 83.7676Z" fill="white"/>
<path d="M392.771 85.1456C392.686 85.1696 392.552 85.1936 392.368 85.2175C392.192 85.2415 392.015 85.2535 391.839 85.2535C391.663 85.2535 391.506 85.2375 391.368 85.2056C391.237 85.1816 391.126 85.1337 391.034 85.0618C390.942 84.9899 390.873 84.89 390.827 84.7622C390.781 84.6344 390.758 84.4666 390.758 84.2589V82.3895H388.55V85.1456C388.466 85.1696 388.332 85.1936 388.148 85.2175C387.971 85.2415 387.795 85.2535 387.619 85.2535C387.442 85.2535 387.285 85.2375 387.147 85.2056C387.017 85.1816 386.906 85.1337 386.814 85.0618C386.722 84.9899 386.653 84.89 386.607 84.7622C386.561 84.6344 386.538 84.4666 386.538 84.2589V77.9318C386.622 77.9158 386.756 77.8958 386.94 77.8718C387.124 77.8399 387.301 77.8239 387.469 77.8239C387.646 77.8239 387.799 77.8399 387.929 77.8718C388.067 77.8958 388.182 77.9437 388.274 78.0156C388.366 78.0875 388.435 78.1874 388.481 78.3152C388.527 78.443 388.55 78.6108 388.55 78.8185V80.7358H390.758V77.9318C390.842 77.9158 390.977 77.8958 391.161 77.8718C391.345 77.8399 391.521 77.8239 391.69 77.8239C391.866 77.8239 392.019 77.8399 392.15 77.8718C392.288 77.8958 392.403 77.9437 392.495 78.0156C392.587 78.0875 392.656 78.1874 392.702 78.3152C392.748 78.443 392.771 78.6108 392.771 78.8185V85.1456Z" fill="white"/>
<path d="M399.899 82.2817C399.899 82.777 399.826 83.2203 399.681 83.6118C399.535 83.9953 399.328 84.3188 399.06 84.5824C398.799 84.8461 398.485 85.0458 398.117 85.1816C397.749 85.3174 397.338 85.3853 396.886 85.3853C396.434 85.3853 396.024 85.3134 395.656 85.1696C395.288 85.0258 394.969 84.8221 394.701 84.5585C394.44 84.2869 394.237 83.9593 394.092 83.5758C393.946 83.1924 393.873 82.761 393.873 82.2817C393.873 81.8103 393.946 81.3829 394.092 80.9995C394.237 80.616 394.44 80.2925 394.701 80.0288C394.969 79.7572 395.288 79.5495 395.656 79.4057C396.024 79.2619 396.434 79.19 396.886 79.19C397.338 79.19 397.749 79.2659 398.117 79.4177C398.485 79.5615 398.799 79.7692 399.06 80.0408C399.328 80.3044 399.535 80.628 399.681 81.0114C399.826 81.3949 399.899 81.8183 399.899 82.2817ZM395.874 82.2817C395.874 82.769 395.962 83.1445 396.139 83.4081C396.323 83.6637 396.576 83.7915 396.898 83.7915C397.22 83.7915 397.465 83.6597 397.634 83.3961C397.81 83.1325 397.898 82.761 397.898 82.2817C397.898 81.8023 397.81 81.4349 397.634 81.1792C397.457 80.9156 397.208 80.7838 396.886 80.7838C396.564 80.7838 396.315 80.9156 396.139 81.1792C395.962 81.4349 395.874 81.8023 395.874 82.2817Z" fill="white"/>
<path d="M400.853 79.4536C400.929 79.4297 401.048 79.4057 401.209 79.3817C401.378 79.3578 401.55 79.3458 401.727 79.3458C401.895 79.3458 402.045 79.3578 402.175 79.3817C402.313 79.4057 402.428 79.4536 402.52 79.5255C402.612 79.5974 402.681 79.6973 402.727 79.8251C402.781 79.9449 402.808 80.1047 402.808 80.3044V82.8808C402.808 83.2084 402.884 83.444 403.038 83.5878C403.191 83.7236 403.413 83.7915 403.705 83.7915C403.881 83.7915 404.023 83.7756 404.13 83.7436C404.245 83.7116 404.333 83.6797 404.395 83.6477V79.4536C404.471 79.4297 404.59 79.4057 404.751 79.3817C404.92 79.3578 405.092 79.3458 405.269 79.3458C405.437 79.3458 405.587 79.3578 405.717 79.3817C405.855 79.4057 405.97 79.4536 406.062 79.5255C406.154 79.5974 406.223 79.6973 406.269 79.8251C406.323 79.9449 406.35 80.1047 406.35 80.3044V83.9473C406.35 84.3468 406.189 84.6463 405.867 84.8461C405.598 85.0218 405.276 85.1536 404.901 85.2415C404.533 85.3374 404.13 85.3853 403.693 85.3853C403.279 85.3853 402.896 85.3374 402.543 85.2415C402.198 85.1456 401.899 84.9978 401.646 84.7981C401.393 84.5984 401.198 84.3428 401.06 84.0312C400.922 83.7116 400.853 83.3282 400.853 82.8808V79.4536Z" fill="white"/>
<path d="M412.261 83.456C412.261 84.0632 412.042 84.5385 411.605 84.882C411.168 85.2255 410.525 85.3973 409.674 85.3973C409.352 85.3973 409.053 85.3733 408.777 85.3254C408.501 85.2775 408.263 85.2056 408.064 85.1097C407.872 85.0058 407.719 84.878 407.604 84.7262C407.496 84.5744 407.443 84.3947 407.443 84.187C407.443 83.9953 407.481 83.8355 407.558 83.7077C407.634 83.5718 407.726 83.46 407.834 83.3721C408.056 83.4999 408.309 83.6158 408.593 83.7196C408.884 83.8155 409.217 83.8634 409.593 83.8634C409.831 83.8634 410.011 83.8275 410.134 83.7556C410.264 83.6837 410.329 83.5878 410.329 83.468C410.329 83.3561 410.283 83.2683 410.191 83.2044C410.099 83.1404 409.946 83.0885 409.731 83.0486L409.386 82.9767C408.719 82.8409 408.221 82.6292 407.891 82.3416C407.569 82.046 407.408 81.6266 407.408 81.0833C407.408 80.7877 407.469 80.5201 407.592 80.2805C407.715 80.0408 407.887 79.8411 408.11 79.6813C408.332 79.5215 408.596 79.3977 408.903 79.3098C409.217 79.2219 409.562 79.178 409.938 79.178C410.222 79.178 410.486 79.202 410.732 79.2499C410.985 79.2898 411.203 79.3538 411.387 79.4416C411.571 79.5295 411.717 79.6454 411.824 79.7891C411.931 79.925 411.985 80.0887 411.985 80.2805C411.985 80.4642 411.95 80.624 411.881 80.7598C411.82 80.8876 411.74 80.9955 411.64 81.0833C411.579 81.0434 411.487 81.0034 411.364 80.9635C411.241 80.9156 411.107 80.8756 410.962 80.8437C410.816 80.8037 410.666 80.7718 410.513 80.7478C410.367 80.7238 410.233 80.7119 410.111 80.7119C409.858 80.7119 409.662 80.7438 409.524 80.8077C409.386 80.8636 409.317 80.9555 409.317 81.0833C409.317 81.1712 409.355 81.2431 409.432 81.299C409.509 81.355 409.654 81.4069 409.869 81.4548L410.226 81.5387C410.962 81.7144 411.483 81.9581 411.789 82.2697C412.104 82.5732 412.261 82.9687 412.261 83.456Z" fill="white"/>
<path d="M416.218 85.3853C415.765 85.3853 415.344 85.3214 414.953 85.1936C414.569 85.0578 414.232 84.8581 413.941 84.5944C413.657 84.3308 413.431 83.9993 413.262 83.5998C413.101 83.2004 413.021 82.733 413.021 82.1978C413.021 81.6705 413.101 81.2192 413.262 80.8437C413.431 80.4602 413.649 80.1487 413.918 79.909C414.186 79.6613 414.493 79.4816 414.838 79.3697C415.183 79.2499 415.535 79.19 415.896 79.19C416.302 79.19 416.67 79.2539 417 79.3817C417.337 79.5096 417.624 79.6853 417.862 79.909C418.107 80.1327 418.295 80.4003 418.426 80.7119C418.564 81.0234 418.633 81.363 418.633 81.7304C418.633 82.0021 418.56 82.2098 418.414 82.3536C418.268 82.4974 418.065 82.5892 417.805 82.6292L414.964 83.0726C415.048 83.3362 415.221 83.5359 415.482 83.6717C415.742 83.7995 416.041 83.8634 416.379 83.8634C416.693 83.8634 416.988 83.8235 417.264 83.7436C417.548 83.6557 417.778 83.5559 417.954 83.444C418.077 83.5239 418.18 83.6358 418.265 83.7796C418.349 83.9234 418.391 84.0751 418.391 84.2349C418.391 84.5944 418.23 84.862 417.908 85.0378C417.663 85.1736 417.387 85.2655 417.08 85.3134C416.773 85.3613 416.486 85.3853 416.218 85.3853ZM415.896 80.6759C415.712 80.6759 415.551 80.7079 415.413 80.7718C415.282 80.8357 415.175 80.9196 415.091 81.0234C415.006 81.1193 414.941 81.2311 414.895 81.359C414.857 81.4788 414.834 81.6026 414.826 81.7304L416.793 81.3949C416.77 81.2351 416.685 81.0754 416.54 80.9156C416.394 80.7558 416.179 80.6759 415.896 80.6759Z" fill="white"/>
</svg>
